# xmcd
#
# Track frame offsets: 
#        182
#        16002
#        27555
#        39145
#        60467
#        75245
#        88442
#        104497
#        115822
#        132832
#        136605
#
# Disc length: 2029 seconds
#
# Revision: 8
# Processed by: cddbd v1.5PL3 Copyright (c) Steve Scherf et al.
# Submitted via: ExactAudioCopy v0.90b4
#
DISCID=7e07eb0b
DTITLE=Garth Brooks - Beyond The Season
DYEAR=1992
DGENRE=Christmas
TTITLE0=Go Tell It On The Mountain
TTITLE1=God Rest Ye Merry Gentlemen
TTITLE2=The Old Man's Back In Town
TTITLE3=The Gift
TTITLE4=Unto You This Night
TTITLE5=White Christmas
TTITLE6=The Friendly Beasts
TTITLE7=Santa Looked A Lot Like Daddy
TTITLE8=Silent Night
TTITLE9=Mary's Dream
TTITLE10=What Child Is This
EXTD=
EXTT0=
EXTT1=
EXTT2=
EXTT3=
EXTT4=
EXTT5=
EXTT6=
EXTT7=
EXTT8=
EXTT9=
EXTT10=
PLAYORDER=
